<svg width="24" xmlns="http://www.w3.org/2000/svg" height="24" id="screenshot-1399c7b7-a822-8037-8007-201d3e466625" viewBox="0 0 24 24" xmlns:xlink="http://www.w3.org/1999/xlink" fill="none" version="1.1"><g id="shape-1399c7b7-a822-8037-8007-201d3e466625" width="48" height="48" rx="0" ry="0" style="fill: rgb(0, 0, 0);"><g id="shape-1399c7b7-a822-8037-8007-201d3e466626" style="display: none;"><g class="fills" id="fills-1399c7b7-a822-8037-8007-201d3e466626"><rect width="24" height="24" x="0" transform="matrix(1.000000, 0.000000, 0.000000, 1.000000, 0.000000, 0.000000)" style="fill: none;" ry="0" fill="none" rx="0" y="0"/></g></g><g id="shape-1399c7b7-a822-8037-8007-201d3e466627" style="opacity: 0.2;"><g class="fills" id="fills-1399c7b7-a822-8037-8007-201d3e466627"><path d="M20.25,4.5L20.25,8.25L3.75,8.25L3.75,4.5C3.75,4.0858154296875,4.0869140625,3.75,4.5,3.75L19.5,3.75C19.9130859375,3.75,20.25,4.0858154296875,20.25,4.5Z" style="fill: rgb(48, 48, 48);"/></g></g><g id="shape-1399c7b7-a822-8037-8007-201d3e466628"><g class="fills" id="fills-1399c7b7-a822-8037-8007-201d3e466628"><path d="M19.5,3L17.25,3L17.25,2.25C17.25,1.8358154296875,16.9130859375,1.5,16.5,1.5C16.0869140625,1.5,15.75,1.8358154296875,15.75,2.25L15.75,3L8.25,3L8.25,2.25C8.25,1.8358154296875,7.9130859375,1.5,7.5,1.5C7.0869140625,1.5,6.75,1.8358154296875,6.75,2.25L6.75,3L4.5,3C3.6708984375,3,3,3.671630859375,3,4.5L3,19.5C3,20.328369140625,3.6708984375,21,4.5,21L19.5,21C20.3291015625,21,21,20.328369140625,21,19.5L21,4.5C21,3.671630859375,20.3291015625,3,19.5,3ZM6.75,4.5L6.75,5.25C6.75,5.6641845703125,7.0869140625,6,7.5,6C7.9130859375,6,8.25,5.6641845703125,8.25,5.25L8.25,4.5L15.75,4.5L15.75,5.25C15.75,5.6641845703125,16.0869140625,6,16.5,6C16.9130859375,6,17.25,5.6641845703125,17.25,5.25L17.25,4.5L19.5,4.5L19.5,7.5L4.5,7.5L4.5,4.5ZM19.5,19.5L4.5,19.5L4.5,9L19.5,9L19.5,19.5Z" style="fill: rgb(48, 48, 48);"/></g></g></g></svg>