<svg width="48" xmlns="http://www.w3.org/2000/svg" height="48" id="screenshot-1399c7b7-a822-8037-8007-201d3e46661b" viewBox="0 0 48 48" xmlns:xlink="http://www.w3.org/1999/xlink" fill="none" version="1.1"><g id="shape-1399c7b7-a822-8037-8007-201d3e46661b" width="48" height="48" rx="0" ry="0" style="fill: rgb(0, 0, 0);"><g id="shape-1399c7b7-a822-8037-8007-201d3e46661c" style="display: none;"><g class="fills" id="fills-1399c7b7-a822-8037-8007-201d3e46661c"><rect width="48" height="48.00000000000023" x="0" transform="matrix(1.000000, 0.000000, 0.000000, 1.000000, 0.000000, 0.000000)" style="fill: none;" ry="0" fill="none" rx="0" y="0"/></g></g><g id="shape-1399c7b7-a822-8037-8007-201d3e46661d" style="opacity: 0.2;"><g class="fills" id="fills-1399c7b7-a822-8037-8007-201d3e46661d"><path d="M37.5,10.5L37.5,39.0001220703125C37.5,39.8284912109375,36.8291015625,40.5001220703125,36,40.5001220703125L12,40.5001220703125C11.1708984375,40.5001220703125,10.5,39.8284912109375,10.5,39.0001220703125L10.5,10.5Z" style="fill: rgb(131, 0, 0); fill-opacity: 1;"/></g></g><g id="shape-1399c7b7-a822-8037-8007-201d3e46661e"><g class="fills" id="fills-1399c7b7-a822-8037-8007-201d3e46661e"><path d="M40.5,9L33,9L33,7.5C33,5.0146484375,30.9853515625,3,28.5,3L19.5,3C17.0146484375,3,15,5.0146484375,15,7.5L15,9L7.5,9C6.6708984375,9,6,9.6715087890625,6,10.5C6,11.3284912109375,6.6708984375,12,7.5,12L9,12L9,39.0001220703125C9,40.6568603515625,10.34375,42.0001220703125,12,42.0001220703125L36,42.0001220703125C37.65625,42.0001220703125,39,40.6568603515625,39,39.0001220703125L39,12L40.5,12C41.3291015625,12,42,11.3284912109375,42,10.5C42,9.6715087890625,41.3291015625,9,40.5,9ZM18,7.5C18,6.6715087890625,18.6708984375,6,19.5,6L28.5,6C29.3291015625,6,30,6.6715087890625,30,7.5L30,9L18,9ZM36,39.0001220703125L12,39.0001220703125L12,12L36,12ZM21,19.5L21,31.5001220703125C21,32.3284912109375,20.3291015625,33.0001220703125,19.5,33.0001220703125C18.6708984375,33.0001220703125,18,32.3284912109375,18,31.5001220703125L18,19.5C18,18.6715087890625,18.6708984375,18,19.5,18C20.3291015625,18,21,18.6715087890625,21,19.5ZM30,19.5L30,31.5001220703125C30,32.3284912109375,29.3291015625,33.0001220703125,28.5,33.0001220703125C27.6708984375,33.0001220703125,27,32.3284912109375,27,31.5001220703125L27,19.5C27,18.6715087890625,27.6708984375,18,28.5,18C29.3291015625,18,30,18.6715087890625,30,19.5Z" style="fill: rgb(131, 0, 0); fill-opacity: 1;"/></g></g></g></svg>