<svg width="48" xmlns="http://www.w3.org/2000/svg" height="48" id="screenshot-1399c7b7-a822-8037-8007-201d3e46661f" viewBox="0 0 48 48" xmlns:xlink="http://www.w3.org/1999/xlink" fill="none" version="1.1"><g id="shape-1399c7b7-a822-8037-8007-201d3e46661f" width="48" height="48" rx="0" ry="0" style="fill: rgb(0, 0, 0);"><g id="shape-1399c7b7-a822-8037-8007-201d3e466620" style="display: none;"><g class="fills" id="fills-1399c7b7-a822-8037-8007-201d3e466620"><rect width="48" height="48.00000000000023" x="0" transform="matrix(1.000000, 0.000000, 0.000000, 1.000000, 0.000000, 0.000000)" style="fill: none;" ry="0" fill="none" rx="0" y="0"/></g></g><g id="shape-1399c7b7-a822-8037-8007-201d3e466621" style="opacity: 0.2;"><g class="fills" id="fills-1399c7b7-a822-8037-8007-201d3e466621"><path d="M40.5,9L40.5,39.0001220703125L7.5,39.0001220703125L7.5,9C7.5,7.34326171875,8.84375,6,10.5,6L37.5,6C39.15625,6,40.5,7.34326171875,40.5,9Z" style="fill: rgb(48, 48, 48);"/></g></g><g id="shape-1399c7b7-a822-8037-8007-201d3e466622"><g class="fills" id="fills-1399c7b7-a822-8037-8007-201d3e466622"><path d="M42,27.0001220703125L42,39.0001220703125C42,39.8287353515625,41.328125,40.5001220703125,40.5,40.5001220703125L7.5,40.5001220703125C6.671875,40.5001220703125,6,39.8287353515625,6,39.0001220703125L6,27.0001220703125C6,26.1715087890625,6.671875,25.5001220703125,7.5,25.5001220703125C8.328125,25.5001220703125,9,26.1715087890625,9,27.0001220703125L9,37.5001220703125L39,37.5001220703125L39,27.0001220703125C39,26.1715087890625,39.671875,25.5001220703125,40.5,25.5001220703125C41.328125,25.5001220703125,42,26.1715087890625,42,27.0001220703125ZM22.9375,28.0611572265625C23.21875,28.3428955078125,23.6015625,28.5010986328125,24,28.5010986328125C24.3984375,28.5010986328125,24.78125,28.3428955078125,25.0625,28.0611572265625L32.5625,20.56103515625C33.1484375,19.97509765625,33.1484375,19.02490234375,32.5625,18.43896484375C31.9765625,17.8525390625,31.0234375,17.8525390625,30.4375,18.43896484375L25.5,23.3795166015625L25.5,6C25.5,5.17138671875,24.828125,4.5,24,4.5C23.171875,4.5,22.5,5.17138671875,22.5,6L22.5,23.3795166015625L17.5625,18.43896484375C16.9765625,17.8525390625,16.0234375,17.8525390625,15.4375,18.43896484375C14.8515625,19.02490234375,14.8515625,19.97509765625,15.4375,20.56103515625Z" style="fill: rgb(48, 48, 48);"/></g></g></g></svg>