<svg width="276" xmlns="http://www.w3.org/2000/svg" height="86" id="screenshot-eacc4d00-444e-80a2-8007-13c58a8c85b9" viewBox="0 0 276 86" xmlns:xlink="http://www.w3.org/1999/xlink" fill="none" version="1.1"><g id="shape-eacc4d00-444e-80a2-8007-13c58a8c85b9"><defs><clipPath id="frame-clip-eacc4d00-444e-80a2-8007-13c58a8c85b9-render-1" class="frame-clip frame-clip-def"><rect rx="0" ry="0" x="0" y="0" width="276" height="86" transform="matrix(1.000000, 0.000000, 0.000000, 1.000000, 0.000000, 0.000000)"/></clipPath></defs><g class="frame-container-wrapper"><g class="frame-container-blur"><g class="frame-container-shadows"><g clip-path="url(#frame-clip-eacc4d00-444e-80a2-8007-13c58a8c85b9-render-1)" fill="none"><g class="fills" id="fills-eacc4d00-444e-80a2-8007-13c58a8c85b9"><rect rx="0" ry="0" x="0" y="0" width="276" height="86" transform="matrix(1.000000, 0.000000, 0.000000, 1.000000, 0.000000, 0.000000)" class="frame-background"/></g><g class="frame-children"><g id="shape-eacc4d00-444e-80a2-8007-13c5a6fd171b" width="151" height="47" rx="0" ry="0" style="fill: rgb(0, 0, 0);"><g id="shape-eacc4d00-444e-80a2-8007-13c5a6fd171c" style="display: none;"><g class="fills" id="fills-eacc4d00-444e-80a2-8007-13c5a6fd171c"><rect width="275.9999999999991" height="85.99999999999955" x="-0.21315121858879138" transform="matrix(1.000000, 0.000000, 0.000000, 1.000000, 0.000000, 0.000000)" style="fill: none;" ry="0" fill="none" rx="0" y="-0.5233311900688022"/></g></g><g id="shape-eacc4d00-444e-80a2-8007-13c5a6fd5c16"><g class="fills" id="fills-eacc4d00-444e-80a2-8007-13c5a6fd5c16"><path d="M275.78662109375,59.4443359375L275.78662109375,42.021728515625C275.78662109375,38.87353515625,275.44677734375,35.958251953125,274.746826171875,33.258544921875C274.065185546875,30.55908203125,272.992431640625,28.17919921875,271.5537109375,26.152587890625C270.104248046875,24.109130859375,268.27294921875,22.506103515625,266.030029296875,21.3720703125C263.7890625,20.234130859375,261.114990234375,19.6484375,258.03515625,19.632080078125C255.83056640625,19.632080078125,253.6923828125,19.96826171875,251.646728515625,20.62451171875C249.5849609375,21.29736328125,247.70458984375,22.31494140625,245.982421875,23.66064453125C244.275634765625,25.03125,242.84765625,26.738037109375,241.677978515625,28.798095703125L241.677978515625,-0.5234375L237.263916015625,-0.5234375L237.263916015625,59.4443359375L241.677978515625,59.4443359375L241.677978515625,41.7021484375C241.694580078125,38.537353515625,242.177490234375,35.80029296875,243.11083984375,33.5078125C244.0283203125,31.21533203125,245.264404296875,29.350341796875,246.806640625,27.8759765625C248.332763671875,26.401611328125,250.034912109375,25.31787109375,251.899169921875,24.6240234375C253.7431640625,23.909912109375,255.611572265625,23.573486328125,257.494384765625,23.573486328125C260.4189453125,23.59033203125,262.91162109375,24.28759765625,264.9697265625,25.654052734375C267.031494140625,27.041259765625,268.616455078125,29.01416015625,269.709716796875,31.589111328125C270.8173828125,34.1474609375,271.374267578125,37.24169921875,271.374267578125,40.8466796875L271.374267578125,59.4443359375L275.78662109375,59.4443359375ZM191.676513671875,59.4443359375C191.459228515625,58.829833984375,191.25390625,58.1904296875,191.069580078125,57.5380859375C190.24365234375,54.585205078125,189.81201171875,51.33349609375,189.81201171875,47.7822265625C189.81201171875,44.19384765625,190.24365234375,40.9169921875,191.069580078125,37.968505859375C191.8955078125,35.019775390625,193.09326171875,32.45703125,194.635498046875,30.3095703125C196.1982421875,28.17919921875,198.046630859375,26.505615234375,200.21435546875,25.35107421875C202.363525390625,24.1796875,204.791015625,23.59033203125,207.459716796875,23.573486328125C210.4736328125,23.59033203125,213.164306640625,24.3583984375,215.54736328125,25.8330078125C217.91650390625,27.32373046875,219.99462890625,29.4208984375,221.771484375,32.10400390625L225.4306640625,29.5498046875C223.421875,26.385009765625,220.908447265625,23.947265625,217.89453125,22.2236328125C214.86376953125,20.5166015625,211.3857421875,19.6484375,207.459716796875,19.632080078125C204.032470703125,19.6484375,200.95068359375,20.3212890625,198.205322265625,21.67529296875C195.47802734375,23.02099609375,193.131591796875,24.94384765625,191.19580078125,27.431640625C189.254638671875,29.91943359375,187.766845703125,32.8681640625,186.74853515625,36.3193359375C185.724853515625,39.7626953125,185.202392578125,43.58349609375,185.185791015625,47.7822265625C185.202392578125,51.972900390625,185.724853515625,55.7939453125,186.74853515625,59.228515625L186.81640625,59.4443359375L191.676513671875,59.4443359375ZM173.672607421875,59.4443359375L173.672607421875,42.021728515625C173.672607421875,38.87353515625,173.33349609375,35.958251953125,172.6337890625,33.258544921875C171.95068359375,30.55908203125,170.8779296875,28.17919921875,169.440673828125,26.152587890625C167.98583984375,24.109130859375,166.158935546875,22.506103515625,163.9169921875,21.3720703125C161.674560546875,20.234130859375,159.005126953125,19.6484375,155.916748046875,19.632080078125C153.71630859375,19.632080078125,151.5791015625,19.96826171875,149.53369140625,20.62451171875C147.476318359375,21.29736328125,145.590087890625,22.31494140625,143.863525390625,23.66064453125C142.162109375,25.03125,140.728759765625,26.738037109375,139.563720703125,28.798095703125L139.563720703125,21.01513671875L135.151123046875,21.01513671875L135.151123046875,59.4443359375L139.563720703125,59.4443359375L139.563720703125,41.7021484375C139.58056640625,38.537353515625,140.0625,35.80029296875,140.9970703125,33.5078125C141.948486328125,31.21533203125,143.184814453125,29.350341796875,144.74365234375,27.8759765625C146.290283203125,26.418212890625,148.00830078125,25.31787109375,149.877197265625,24.6240234375C151.738037109375,23.909912109375,153.603271484375,23.573486328125,155.4892578125,23.573486328125C158.413818359375,23.59033203125,160.886962890625,24.28759765625,162.931640625,25.654052734375C164.977294921875,27.041259765625,166.552978515625,29.01416015625,167.629638671875,31.589111328125C168.702392578125,34.1474609375,169.26025390625,37.24169921875,169.26025390625,40.8466796875L169.26025390625,59.4443359375L173.672607421875,59.4443359375ZM119.548828125,59.4443359375L119.548828125,38.184326171875C119.53173828125,34.915771484375,119.0078125,32.10400390625,117.989501953125,29.740966796875C116.966796875,27.394287109375,115.587890625,25.479736328125,113.8447265625,23.980224609375C112.10986328125,22.4892578125,110.1357421875,21.388916015625,107.92724609375,20.674560546875C105.72265625,19.96826171875,103.426025390625,19.632080078125,101.03759765625,19.632080078125C98.40576171875,19.632080078125,95.857666015625,20.0556640625,93.3974609375,20.85693359375C90.9462890625,21.67529296875,88.720458984375,22.8466796875,86.730224609375,24.375C84.739013671875,25.8828125,83.125732421875,27.714111328125,81.8857421875,29.86962890625L85.330322265625,32.423828125C86.56689453125,30.4345703125,88.020751953125,28.78125,89.671875,27.46484375C91.31884765625,26.1689453125,93.079345703125,25.193115234375,94.943603515625,24.53271484375C96.80908203125,23.89306640625,98.657470703125,23.573486328125,100.50537109375,23.573486328125C102.420654296875,23.573486328125,104.268310546875,23.89306640625,106.0078125,24.51611328125C107.767822265625,25.118408203125,109.3271484375,26.023681640625,110.68896484375,27.2197265625C112.055419921875,28.411865234375,113.128173828125,29.86962890625,113.936767578125,31.568359375C114.724853515625,33.2958984375,115.118408203125,35.252197265625,115.139892578125,37.432373046875L115.139892578125,44.79638671875C112.96875,43.832763671875,110.7099609375,43.105712890625,108.375732421875,42.6240234375C106.02880859375,42.150634765625,103.694580078125,41.91796875,101.3603515625,41.91796875C98.40576171875,41.91796875,95.572998046875,42.28759765625,92.882080078125,43.03515625C90.191650390625,43.76220703125,87.785888671875,44.89990234375,85.669921875,46.411865234375C83.557373046875,47.92333984375,81.868896484375,49.82568359375,80.648681640625,52.134765625C79.521484375,54.22802734375,78.914306640625,56.670166015625,78.79248046875,59.4443359375L83.406494140625,59.4443359375C83.473388671875,57.43017578125,83.951416015625,55.62353515625,84.852294921875,53.999755859375C85.7998046875,52.27587890625,87.107177734375,50.818359375,88.79638671875,49.60986328125C90.46435546875,48.384521484375,92.395751953125,47.46240234375,94.6044921875,46.822998046875C96.80908203125,46.17919921875,99.1767578125,45.859375,101.687255859375,45.859375C103.426025390625,45.859375,105.11083984375,46.0048828125,106.783447265625,46.30810546875C108.43017578125,46.59033203125,109.993408203125,46.997314453125,111.40576171875,47.512451171875C112.843017578125,48.04833984375,114.07958984375,48.671142578125,115.139892578125,49.376953125L115.139892578125,59.4443359375L119.548828125,59.4443359375ZM67.255126953125,59.4443359375L67.255126953125,42.021728515625C67.255126953125,38.87353515625,66.9326171875,35.958251953125,66.287353515625,33.258544921875C65.637451171875,30.55908203125,64.6357421875,28.17919921875,63.290771484375,26.152587890625C61.9453125,24.109130859375,60.223388671875,22.506103515625,58.127685546875,21.3720703125C56.049072265625,20.234130859375,53.555419921875,19.6484375,50.684326171875,19.632080078125C48.33349609375,19.632080078125,46.124755859375,20.0390625,44.029541015625,20.890380859375C41.929931640625,21.74609375,40.048583984375,23.02099609375,38.363525390625,24.765380859375C36.695556640625,26.48876953125,35.316650390625,28.6943359375,34.21875,31.360595703125C33.464599609375,29.03076171875,32.429443359375,26.987060546875,31.080078125,25.22607421875C29.738525390625,23.486083984375,28.06689453125,22.11572265625,26.09716796875,21.123046875C24.123046875,20.142822265625,21.809814453125,19.6484375,19.1572265625,19.632080078125C17.1455078125,19.632080078125,15.21337890625,19.93115234375,13.361083984375,20.570556640625C11.51708984375,21.193603515625,9.828125,22.132080078125,8.269287109375,23.41552734375C6.710205078125,24.69482421875,5.34814453125,26.310546875,4.199951171875,28.2666015625L4.199951171875,21.01513671875L-0.21337890625,21.01513671875L-0.21337890625,59.4443359375L4.199951171875,59.4443359375L4.199951171875,41.7021484375C4.216552734375,38.537353515625,4.6650390625,35.80029296875,5.511474609375,33.5078125C6.37060546875,31.21533203125,7.502197265625,29.350341796875,8.91455078125,27.8759765625C10.3310546875,26.418212890625,11.89013671875,25.31787109375,13.595703125,24.6240234375C15.3017578125,23.909912109375,17.00732421875,23.573486328125,18.729736328125,23.573486328125C21.399169921875,23.59033203125,23.657958984375,24.28759765625,25.52294921875,25.654052734375C27.40478515625,27.041259765625,28.842041015625,29.01416015625,29.826904296875,31.589111328125C30.81591796875,34.1474609375,31.314697265625,37.24169921875,31.314697265625,40.8466796875L31.314697265625,59.4443359375L35.7275390625,59.4443359375L35.7275390625,41.0625C35.7275390625,38.716064453125,36.067138671875,36.5107421875,36.75,34.413330078125C37.412109375,32.320068359375,38.380615234375,30.4716796875,39.633544921875,28.83544921875C40.91162109375,27.2197265625,42.43701171875,25.9365234375,44.209716796875,24.997802734375C46.003173828125,24.07177734375,48.014892578125,23.59033203125,50.25341796875,23.573486328125C52.922607421875,23.59033203125,55.185546875,24.28759765625,57.050537109375,25.654052734375C58.936279296875,27.041259765625,60.36962890625,29.01416015625,61.3544921875,31.589111328125C62.33935546875,34.1474609375,62.84228515625,37.24169921875,62.84228515625,40.8466796875L62.84228515625,59.4443359375L67.255126953125,59.4443359375Z" style="fill: rgb(0, 0, 0);"/></g></g><g id="shape-eacc4d00-444e-80a2-8007-13c5a6fd5c17"><g class="fills" id="fills-eacc4d00-444e-80a2-8007-13c5a6fd5c17"><path d="M178.990966796875,83.05517578125C179.619384765625,83.46630859375,180.72998046875,83.89453125,181.79443359375,83.89453125C183.336181640625,83.89453125,184.0576171875,83.1298828125,184.0576171875,82.170654296875C184.0576171875,81.169921875,183.454833984375,80.617431640625,181.88671875,80.04443359375C179.787109375,79.30517578125,178.80224609375,78.154541015625,178.80224609375,76.767333984375C178.80224609375,74.902587890625,180.319580078125,73.3701171875,182.82958984375,73.3701171875C184.01220703125,73.3701171875,185.050537109375,73.70654296875,185.701171875,74.088623046875L185.16748046875,75.6171875C184.71044921875,75.33056640625,183.869873046875,74.948486328125,182.77880859375,74.948486328125C181.526611328125,74.948486328125,180.822509765625,75.6669921875,180.822509765625,76.526611328125C180.822509765625,77.48193359375,181.526611328125,77.91357421875,183.04736328125,78.490966796875C185.075927734375,79.2509765625,186.1103515625,80.26025390625,186.1103515625,81.983642578125C186.1103515625,84.0146484375,184.518798828125,85.45166015625,181.744384765625,85.45166015625C180.4619140625,85.45166015625,179.2802734375,85.14013671875,178.458740234375,84.658447265625L178.990966796875,83.05517578125Z" style="fill: rgb(0, 0, 0);"/></g></g><g id="shape-eacc4d00-444e-80a2-8007-13c5a6fd5c18"><g class="fills" id="fills-eacc4d00-444e-80a2-8007-13c5a6fd5c18"><path d="M268.269287109375,83.05517578125C268.897705078125,83.46630859375,270.00341796875,83.89453125,271.067138671875,83.89453125C272.6103515625,83.89453125,273.3359375,83.1298828125,273.3359375,82.170654296875C273.3359375,81.169921875,272.732666015625,80.617431640625,271.160888671875,80.04443359375C269.060791015625,79.30517578125,268.07568359375,78.154541015625,268.07568359375,76.767333984375C268.07568359375,74.902587890625,269.59228515625,73.3701171875,272.10791015625,73.3701171875C273.29052734375,73.3701171875,274.32470703125,73.70654296875,274.9736328125,74.088623046875L274.441650390625,75.6171875C273.98486328125,75.33056640625,273.142333984375,74.948486328125,272.052490234375,74.948486328125C270.80029296875,74.948486328125,270.1005859375,75.6669921875,270.1005859375,76.526611328125C270.1005859375,77.48193359375,270.80029296875,77.91357421875,272.321044921875,78.490966796875C274.350341796875,79.2509765625,275.388671875,80.26025390625,275.388671875,81.983642578125C275.388671875,84.0146484375,273.79296875,85.45166015625,271.01806640625,85.45166015625C269.740478515625,85.45166015625,268.55810546875,85.14013671875,267.7373046875,84.658447265625L268.269287109375,83.05517578125Z" style="fill: rgb(0, 0, 0);"/></g></g><g id="shape-eacc4d00-444e-80a2-8007-13c5a6fd5c19"><g class="fills" id="fills-eacc4d00-444e-80a2-8007-13c5a6fd5c19"><path d="M196.227783203125,70.3095703125L196.227783203125,73.6318359375L199.265625,73.6318359375L199.265625,75.2392578125L196.227783203125,75.2392578125L196.227783203125,81.4814453125C196.227783203125,82.914306640625,196.635498046875,83.72802734375,197.81982421875,83.72802734375C198.373291015625,83.72802734375,198.78466796875,83.6533203125,199.0478515625,83.582763671875L199.148681640625,85.1650390625C198.73388671875,85.331298828125,198.0849609375,85.45166015625,197.261962890625,85.45166015625C196.273193359375,85.45166015625,195.47802734375,85.13623046875,194.9755859375,84.567138671875C194.366943359375,83.93994140625,194.153076171875,82.9140625,194.153076171875,81.5517578125L194.153076171875,75.2392578125L192.343505859375,75.2392578125L192.343505859375,73.6318359375L194.153076171875,73.6318359375L194.153076171875,70.861572265625L196.227783203125,70.3095703125Z" style="fill: rgb(0, 0, 0);"/></g></g><g id="shape-eacc4d00-444e-80a2-8007-13c5a6fd5c1a"><g class="fills" id="fills-eacc4d00-444e-80a2-8007-13c5a6fd5c1a"><path d="M216.263916015625,82.0546875C216.263916015625,83.250732421875,216.289794921875,84.30126953125,216.361328125,85.206787109375L214.474609375,85.206787109375L214.35400390625,83.3212890625L214.306884765625,83.3212890625C213.750732421875,84.251708984375,212.522705078125,85.47265625,210.4482421875,85.47265625C208.61083984375,85.47265625,206.412353515625,84.4716796875,206.412353515625,80.401611328125L206.412353515625,73.6318359375L208.535888671875,73.6318359375L208.535888671875,80.04443359375C208.535888671875,82.241455078125,209.216064453125,83.72412109375,211.142822265625,83.72412109375C212.568115234375,83.72412109375,213.55712890625,82.747802734375,213.9462890625,81.8134765625C214.063232421875,81.506103515625,214.134521484375,81.1201171875,214.134521484375,80.73779296875L214.134521484375,73.6318359375L216.263916015625,73.6318359375L216.263916015625,82.0546875Z" style="fill: rgb(0, 0, 0);"/></g></g><g id="shape-eacc4d00-444e-80a2-8007-13c5a6fd5c1b"><g class="fills" id="fills-eacc4d00-444e-80a2-8007-13c5a6fd5c1b"><path d="M232.5791015625,78.345458984375C232.5791015625,78.083740234375,232.5537109375,77.722412109375,232.482421875,77.460693359375C232.168212890625,76.119384765625,231.012939453125,75.02294921875,229.4189453125,75.02294921875C227.22021484375,75.02294921875,225.920654296875,76.933349609375,225.920654296875,79.49169921875C225.920654296875,81.83837890625,227.077392578125,83.77783203125,229.369384765625,83.77783203125C230.793701171875,83.77783203125,232.0966796875,82.839111328125,232.482421875,81.26513671875C232.5537109375,80.978759765625,232.5791015625,80.68798828125,232.5791015625,80.355712890625L232.5791015625,78.345458984375ZM234.705078125,68.22412109375L234.705078125,82.220458984375C234.705078125,83.25048828125,234.728759765625,84.421630859375,234.800048828125,85.2109375L232.893798828125,85.2109375L232.79638671875,83.20458984375L232.7509765625,83.20458984375C232.0966796875,84.4921875,230.6728515625,85.47216796875,228.766357421875,85.47216796875C225.9462890625,85.47216796875,223.770751953125,83.10498046875,223.770751953125,79.58740234375C223.745361328125,75.7373046875,226.16357421875,73.369873046875,229.009521484375,73.369873046875C230.793701171875,73.369873046875,232.001708984375,74.208740234375,232.533203125,75.13916015625L232.5791015625,75.13916015625L232.5791015625,68.22412109375L234.705078125,68.22412109375Z" style="fill: rgb(0, 0, 0);"/></g></g><g id="shape-eacc4d00-444e-80a2-8007-13c5a6fd5c1c"><g class="fills" id="fills-eacc4d00-444e-80a2-8007-13c5a6fd5c1c"><path d="M243.056396484375,73.6318359375L245.181884765625,73.6318359375L245.181884765625,85.2109375L243.056396484375,85.2109375L243.056396484375,73.6318359375ZM245.42333984375,70.3798828125C245.44873046875,71.09814453125,244.9169921875,71.671630859375,244.0703125,71.671630859375C243.3251953125,71.671630859375,242.793212890625,71.09814453125,242.793212890625,70.3798828125C242.793212890625,69.640625,243.3505859375,69.067626953125,244.1162109375,69.067626953125C244.9169921875,69.067626953125,245.42333984375,69.640625,245.42333984375,70.3798828125Z" style="fill: rgb(0, 0, 0);"/></g></g><g id="shape-eacc4d00-444e-80a2-8007-13c5a6fd5c1d"><g class="fills" id="fills-eacc4d00-444e-80a2-8007-13c5a6fd5c1d"><path d="M254.83642578125,79.4462890625C254.83642578125,81.98388671875,256.30810546875,83.89453125,258.385986328125,83.89453125C260.411376953125,83.89453125,261.93212890625,82.0087890625,261.93212890625,79.400390625C261.93212890625,77.43603515625,260.943359375,74.952392578125,258.431884765625,74.952392578125C255.92626953125,74.952392578125,254.83642578125,77.24951171875,254.83642578125,79.4462890625ZM264.107177734375,79.330078125C264.107177734375,83.60791015625,261.111572265625,85.4765625,258.28955078125,85.4765625C255.12548828125,85.4765625,252.69091796875,83.179931640625,252.69091796875,79.516845703125C252.69091796875,75.641845703125,255.25146484375,73.3701171875,258.483154296875,73.3701171875C261.8388671875,73.3701171875,264.107177734375,75.787353515625,264.107177734375,79.330078125Z" style="fill: rgb(0, 0, 0);"/></g></g></g></g></g></g></g></g></g></svg>