<?xml version="1.0" encoding="UTF-8" standalone="no"?>
<!-- Generator: Adobe Illustrator 26.0.1, SVG Export Plug-In . SVG Version: 6.00 Build 0)  -->

<svg
   version="1.1"
   id="Layer_1"
   x="0px"
   y="0px"
   viewBox="0 0 400 163.11999"
   xml:space="preserve"
   sodipodi:docname="logoRenault.svg"
   width="400"
   height="163.12"
   inkscape:version="1.3.2 (091e20e, 2023-11-25)"
   xmlns:inkscape="http://www.inkscape.org/namespaces/inkscape"
   xmlns:sodipodi="http://sodipodi.sourceforge.net/DTD/sodipodi-0.dtd"
   xmlns="http://www.w3.org/2000/svg"
   xmlns:svg="http://www.w3.org/2000/svg"><defs
   id="defs98" /><sodipodi:namedview
   id="namedview98"
   pagecolor="#ffffff"
   bordercolor="#000000"
   borderopacity="0.25"
   inkscape:showpageshadow="2"
   inkscape:pageopacity="0.0"
   inkscape:pagecheckerboard="0"
   inkscape:deskcolor="#d1d1d1"
   inkscape:zoom="1.3054794"
   inkscape:cx="140.94439"
   inkscape:cy="133.66737"
   inkscape:window-width="1800"
   inkscape:window-height="1026"
   inkscape:window-x="0"
   inkscape:window-y="675"
   inkscape:window-maximized="1"
   inkscape:current-layer="Layer_1" />

<g
   id="g92"
   transform="translate(-25,-158.245)">
</g>
<g
   id="g98"
   transform="matrix(0.88888889,0,0,0.88888889,-22.222222,-140.66222)"
   style="stroke-width:1.125;fill:#ffffff">
	<path
   d="m 215.976,268.978 -8.03,-13.569 c 4.241,-2.009 7.175,-6.327 7.175,-11.332 v 0 c 0,-6.738 -5.462,-12.2 -12.2,-12.2 h -25.756 v 22.169 2.565 12.367 h 9.347 v -11.683 h 11.511 l 6.783,11.683 z m -29.464,-29.749 h 13.279 c 2.361,0 4.274,1.914 4.274,4.274 v 2.31 c 0,2.251 -1.825,4.076 -4.076,4.076 h -13.477 z"
   id="path92"
   style="stroke-width:1.125;fill:#ffffff" />
	<polygon
   points="256.611,268.978 256.611,261.569 234.157,261.569 234.157,254.046 254.046,254.046 254.046,246.524 234.157,246.524 234.157,239.229 256.611,239.229 256.611,231.877 224.696,231.877 224.696,268.978 "
   id="polygon92"
   style="stroke-width:1.125;fill:#ffffff" />
	<polygon
   points="296.581,231.877 296.581,255.889 274.958,231.877 265.805,231.877 265.805,268.978 275.173,268.978 275.173,245.004 296.242,268.978 306.003,268.978 306.003,231.877 "
   id="polygon93"
   style="stroke-width:1.125;fill:#ffffff" />
	<path
   d="m 325,262.538 h 18.693 l 2.556,6.44 h 10.324 l -15.844,-37.101 h -12.766 l -16.527,37.101 h 11.238 z m 9.346,-24.164 6.383,16.869 h -12.766 z"
   id="path93"
   style="stroke-width:1.125;fill:#ffffff" />
	<path
   d="m 390.312,231.877 v 22.853 c 0,3.871 -3.138,7.01 -7.01,7.01 h -5.671 c -3.447,0 -6.24,-2.794 -6.24,-6.241 v -23.623 h -9.688 v 24.82 c 0,6.783 5.499,12.282 12.282,12.282 h 13.279 c 7.098,0 12.851,-5.754 12.851,-12.851 v -24.25 z"
   id="path94"
   style="stroke-width:1.125;fill:#ffffff" />
	<polygon
   points="419.833,261.626 441.147,261.626 441.147,268.978 410.372,268.978 410.372,231.877 419.719,231.877 "
   id="polygon94"
   style="stroke-width:1.125;fill:#ffffff" />
	<polygon
   points="450.722,268.978 450.722,239.115 436.36,239.096 436.36,231.877 475,231.877 475,239.286 460.296,239.286 460.296,268.978 "
   id="polygon95"
   style="stroke-width:1.125;fill:#ffffff" />
	<g
   id="g97"
   style="stroke-width:1.125;fill:#ffffff">
		<polygon
   points="99.561,341.755 111.187,341.755 158.604,249.889 111.661,159.161 112.14,158.245 111.187,158.245 99.374,158.245 98.421,158.245 98.9,159.161 51.958,249.889 80.529,305.243 86.808,294.199 64.268,249.889 105.281,171.376 146.294,249.889 "
   id="polygon96"
   style="stroke-width:1.125;fill:#ffffff" />
		<polygon
   points="83.95,341.755 84.043,341.755 83.996,341.665 131.366,249.889 103.121,195.299 96.461,206.635 119.056,249.889 78.183,330.237 37.31,249.889 85.182,158.245 72.416,158.245 25,249.889 72.37,341.665 72.323,341.755 72.416,341.755 "
   id="polygon97"
   style="stroke-width:1.125;fill:#ffffff" />
	</g>
</g>
</svg>
