<svg width="64" xmlns="http://www.w3.org/2000/svg" height="64" id="screenshot-cf8a30cc-1757-80d5-8007-200d888b0b37" viewBox="0 0 64 64" xmlns:xlink="http://www.w3.org/1999/xlink" fill="none" version="1.1"><g id="shape-cf8a30cc-1757-80d5-8007-200d888b0b37" width="48" height="48" rx="0" ry="0" style="fill: rgb(0, 0, 0);"><g id="shape-cf8a30cc-1757-80d5-8007-200d888be390" style="display: none;"><g class="fills" id="fills-cf8a30cc-1757-80d5-8007-200d888be390"><rect width="64" height="64" x="0" transform="matrix(1.000000, 0.000000, 0.000000, 1.000000, 0.000000, 0.000000)" style="fill: none;" ry="0" fill="none" rx="0" y="0"/></g></g><g id="shape-cf8a30cc-1757-80d5-8007-200d888c27c5" style="opacity: 0.2;"><g class="fills" id="fills-cf8a30cc-1757-80d5-8007-200d888c27c5"><path d="M52,22L52,28L17.4423828125,28C16.58154296875,28,15.8173828125,28.55078125,15.544921875,29.367431640625L8,52L8,16C8,14.8953857421875,8.8955078125,14,10,14L23.33251953125,14C23.76513671875,14,24.1865234375,14.140380859375,24.5322265625,14.4000244140625L32,20L50,20C51.1044921875,20,52,20.8953857421875,52,22Z" style="fill: rgb(48, 48, 48);"/></g></g><g id="shape-cf8a30cc-1757-80d5-8007-200d888c605f"><g class="fills" id="fills-cf8a30cc-1757-80d5-8007-200d888c605f"><path d="M61.25,27.6600341796875C60.4970703125,26.615966796875,59.287109375,25.998046875,58,26L54,26L54,22C54,19.7908935546875,52.208984375,18,50,18L32.66748046875,18L25.73486328125,12.800048828125C25.04150390625,12.282958984375,24.2001953125,12.00244140625,23.3349609375,12L10,12C7.791015625,12,6,13.7908935546875,6,16L6,52C6,53.1044921875,6.8955078125,54,8,54L52.77490234375,54C53.6357421875,54,54.400390625,53.44921875,54.67236328125,52.632568359375L61.794921875,31.2650146484375C62.201171875,30.04541015625,61.99853515625,28.7049560546875,61.25,27.6600341796875ZM23.3349609375,16L30.7998046875,21.5999755859375C31.146484375,21.859619140625,31.5673828125,22,32,22L50,22L50,26L17.4423828125,26C15.720703125,25.9998779296875,14.19189453125,27.1015625,13.6474609375,28.7349853515625L10,39.675048828125L10,16ZM51.3349609375,50L10.77490234375,50L17.4423828125,30L58,30Z" style="fill: rgb(48, 48, 48);"/></g></g></g></svg>