<svg width="32" xmlns="http://www.w3.org/2000/svg" height="32" id="screenshot-cf8a30cc-1757-80d5-8007-201338d258e2" viewBox="0 0 32 32" xmlns:xlink="http://www.w3.org/1999/xlink" fill="none" version="1.1"><g id="shape-cf8a30cc-1757-80d5-8007-201338d258e2" width="48" height="48" rx="0" ry="0" style="fill: rgb(0, 0, 0);"><g id="shape-cf8a30cc-1757-80d5-8007-201338d2c432" style="display: none;"><g class="fills" id="fills-cf8a30cc-1757-80d5-8007-201338d2c432"><rect width="32" height="32" x="0" transform="matrix(1.000000, 0.000000, 0.000000, 1.000000, 0.000000, 0.000000)" style="fill: none;" ry="0" fill="none" rx="0" y="0"/></g></g><g id="shape-cf8a30cc-1757-80d5-8007-201338d2c433" style="opacity: 0.2;"><g class="fills" id="fills-cf8a30cc-1757-80d5-8007-201338d2c433"><path d="M28,7L28,25C28,26.10455322265625,27.1044921875,27,26,27L6,27L6,5L26,5C27.1044921875,5,28,5.89544677734375,28,7Z" style="fill: rgb(48, 48, 48);"/></g></g><g id="shape-cf8a30cc-1757-80d5-8007-201338d393e2"><g class="fills" id="fills-cf8a30cc-1757-80d5-8007-201338d393e2"><path d="M15,27C15,27.55224609375,14.55224609375,28,14,28L6,28C5.44775390625,28,5,27.55224609375,5,27L5,5C5,4.44775390625,5.44775390625,4,6,4L14,4C14.55224609375,4,15,4.44775390625,15,5C15,5.55224609375,14.55224609375,6,14,6L7,6L7,26L14,26C14.55224609375,26,15,26.44775390625,15,27ZM28.70751953125,15.29248046875L23.70751953125,10.29248046875C23.31689453125,9.9017333984375,22.68310546875,9.9017333984375,22.29248046875,10.29248046875C21.90185546875,10.6832275390625,21.90185546875,11.3167724609375,22.29248046875,11.70751953125L25.5859375,15L14,15C13.44775390625,15,13,15.44775390625,13,16C13,16.55224609375,13.44775390625,17,14,17L25.5859375,17L22.29248046875,20.29248046875C21.90185546875,20.6832275390625,21.90185546875,21.3167724609375,22.29248046875,21.70751953125C22.68310546875,22.0982666015625,23.31689453125,22.0982666015625,23.70751953125,21.70751953125L28.70751953125,16.70751953125C28.8955078125,16.5198974609375,29.0009765625,16.265380859375,29.0009765625,16C29.0009765625,15.734619140625,28.8955078125,15.4801025390625,28.70751953125,15.29248046875Z" style="fill: rgb(48, 48, 48);"/></g></g></g></svg>