<svg width="64" xmlns="http://www.w3.org/2000/svg" height="64" id="screenshot-cf8a30cc-1757-80d5-8007-200da457eab3" viewBox="0 0 64 64" xmlns:xlink="http://www.w3.org/1999/xlink" fill="none" version="1.1"><g id="shape-cf8a30cc-1757-80d5-8007-200da457eab3" width="48" height="48" rx="0" ry="0" style="fill: rgb(0, 0, 0);"><g id="shape-cf8a30cc-1757-80d5-8007-200da4583f2f" style="display: none;"><g class="fills" id="fills-cf8a30cc-1757-80d5-8007-200da4583f2f"><rect width="64" height="64" x="0" transform="matrix(1.000000, 0.000000, 0.000000, 1.000000, 0.000000, 0.000000)" style="fill: none;" ry="0" fill="none" rx="0" y="0"/></g></g><g id="shape-cf8a30cc-1757-80d5-8007-200da45852f6" style="opacity: 0.2;"><g class="fills" id="fills-cf8a30cc-1757-80d5-8007-200da45852f6"><path d="M56,22L56,50.2225341796875C56,50.69384765625,55.8125,51.14599609375,55.4794921875,51.4793701171875C55.14599609375,51.812744140625,54.69384765625,52,54.22265625,52L10,52C8.8955078125,52,8,51.1044921875,8,50L8,16C8,14.8953857421875,8.8955078125,14,10,14L23.33251953125,14C23.76513671875,14,24.1865234375,14.140380859375,24.5322265625,14.4000244140625L32,20L54,20C55.1044921875,20,56,20.8953857421875,56,22Z" style="fill: rgb(143, 143, 143); fill-opacity: 1;"/></g></g><g id="shape-cf8a30cc-1757-80d5-8007-200da45852f7"><g class="fills" id="fills-cf8a30cc-1757-80d5-8007-200da45852f7"><path d="M54,18L32.66748046875,18L25.732421875,12.800048828125C25.0390625,12.2825927734375,24.19775390625,12.002197265625,23.33251953125,12L10,12C7.791015625,12,6,13.7908935546875,6,16L6,50C6,52.2091064453125,7.791015625,54,10,54L54.22265625,54C56.3076171875,53.997314453125,57.9970703125,52.3076171875,58,50.2225341796875L58,22C58,19.7908935546875,56.208984375,18,54,18ZM54,50L10,50L10,16L23.33251953125,16L30.7998046875,21.5999755859375C31.146484375,21.859619140625,31.5673828125,22,32,22L54,22ZM40,36C40,37.1044921875,39.1044921875,38,38,38L34,38L34,42C34,43.1044921875,33.1044921875,44,32,44C30.8955078125,44,30,43.1044921875,30,42L30,38L26,38C24.8955078125,38,24,37.1044921875,24,36C24,34.8955078125,24.8955078125,34,26,34L30,34L30,30C30,28.8953857421875,30.8955078125,28,32,28C33.1044921875,28,34,28.8953857421875,34,30L34,34L38,34C39.1044921875,34,40,34.8955078125,40,36Z" style="fill: rgb(143, 143, 143); fill-opacity: 1;"/></g></g></g></svg>