<svg width="64" xmlns="http://www.w3.org/2000/svg" height="64" id="screenshot-2a5cd6ff-d5e2-80df-8007-21647776683e" viewBox="0 0 64 64" xmlns:xlink="http://www.w3.org/1999/xlink" fill="none" version="1.1"><g id="shape-2a5cd6ff-d5e2-80df-8007-21647776683e" width="48" height="48" rx="0" ry="0" style="fill: rgb(0, 0, 0);"><g id="shape-2a5cd6ff-d5e2-80df-8007-21647777aed9" style="display: none;"><g class="fills" id="fills-2a5cd6ff-d5e2-80df-8007-21647777aed9"><rect width="64" height="64" x="0" transform="matrix(1.000000, 0.000000, 0.000000, 1.000000, 0.000000, 0.000000)" style="fill: none;" ry="0" fill="none" rx="0" y="0"/></g></g><g id="shape-2a5cd6ff-d5e2-80df-8007-21647778543f" style="opacity: 0.2;"><g class="fills" id="fills-2a5cd6ff-d5e2-80df-8007-21647778543f"><path d="M54,32C54,44.1502685546875,44.1494140625,54,32,54C19.8505859375,54,10,44.1502685546875,10,32C10,19.8497314453125,19.8505859375,10,32,10C44.1494140625,10,54,19.8497314453125,54,32Z" style="fill: rgb(48, 48, 48); fill-opacity: 0.6;"/></g></g><g id="shape-2a5cd6ff-d5e2-80df-8007-21647778b8b0"><g class="fills" id="fills-2a5cd6ff-d5e2-80df-8007-21647778b8b0"><path d="M49.5595703125,15.65753173828125L53.48046875,11.34503173828125C54.20703125,10.52569580078125,54.1396484375,9.27423095703125,53.3291015625,8.53765869140625C52.5185546875,7.80108642578125,51.2666015625,7.8533935546875,50.51953125,8.65496826171875L46.6005859375,12.96502685546875C36.703125,5.364501953125,22.6328125,6.62060546875,14.2392578125,15.8538818359375C5.8466796875,25.087158203125,5.93359375,39.2135009765625,14.4404296875,48.342529296875L10.51953125,52.655029296875C10.0283203125,53.18218994140625,9.859375,53.9324951171875,10.0771484375,54.619384765625C10.29296875,55.3062744140625,10.8623046875,55.8236083984375,11.56640625,55.9737548828125C12.2705078125,56.12396240234375,13.0029296875,55.8837890625,13.48046875,55.344970703125L17.3994140625,51.0350341796875C27.296875,58.635498046875,41.3671875,57.37939453125,49.7607421875,48.1461181640625C58.1533203125,38.912841796875,58.06640625,24.7864990234375,49.5595703125,15.65753173828125ZM12,32C12.0048828125,24.44915771484375,16.26171875,17.5445556640625,23.0048828125,14.14874267578125C29.75,10.75286865234375,37.8310546875,11.44476318359375,43.8994140625,15.9375L17.1494140625,45.3699951171875C13.8330078125,41.7069091796875,11.9970703125,36.94140625,12,32ZM32,52C27.7119140625,52.0045166015625,23.5390625,50.6234130859375,20.1005859375,48.0625L46.8505859375,18.6300048828125C52.13671875,24.49554443359375,53.4755859375,32.92413330078125,50.2646484375,40.1387939453125C47.0546875,47.353515625,39.8974609375,52.00152587890625,32,52Z" style="fill: rgb(48, 48, 48); fill-opacity: 0.6;"/></g></g></g></svg>