<?xml version="1.0" encoding="UTF-8" standalone="no"?>
<!-- Created with Inkscape (http://www.inkscape.org/) -->

<svg
   width="105.83333mm"
   height="54.207607mm"
   viewBox="0 0 105.83333 54.207609"
   version="1.1"
   id="svg1"
   inkscape:version="1.3.2 (091e20e, 2023-11-25)"
   sodipodi:docname="logoManch.svg"
   xmlns:inkscape="http://www.inkscape.org/namespaces/inkscape"
   xmlns:sodipodi="http://sodipodi.sourceforge.net/DTD/sodipodi-0.dtd"
   xmlns="http://www.w3.org/2000/svg"
   xmlns:svg="http://www.w3.org/2000/svg">
  <sodipodi:namedview
     id="namedview1"
     pagecolor="#ffffff"
     bordercolor="#000000"
     borderopacity="0.25"
     inkscape:showpageshadow="2"
     inkscape:pageopacity="0.0"
     inkscape:pagecheckerboard="0"
     inkscape:deskcolor="#d1d1d1"
     inkscape:document-units="mm"
     inkscape:zoom="0.31902669"
     inkscape:cx="666.08847"
     inkscape:cy="473.31463"
     inkscape:window-width="1800"
     inkscape:window-height="1097"
     inkscape:window-x="0"
     inkscape:window-y="675"
     inkscape:window-maximized="1"
     inkscape:current-layer="layer1"
     showgrid="false" />
  <defs
     id="defs1" />
  <g
     inkscape:label="Camada 1"
     inkscape:groupmode="layer"
     id="layer1"
     transform="translate(262.73129,66.410351)">
    <path
       style="fill:#ffffff;stroke-width:4;stroke-linecap:square;paint-order:markers fill stroke"
       d="m -206.79705,-41.792258 c 0,0 0.84086,0.580074 1.46876,1.143516 0.62789,0.563442 0,0 0,0 0,0 15.90287,-4.654231 18.35305,-20.46971 1.49044,-9.620551 0.001,-0.0026 0.001,-0.0026 0,0 -1.85453,7.537186 -9.80373,13.889652 -2.58982,2.069596 -6.06387,3.880897 -10.01938,5.439128 z"
       id="path27"
       sodipodi:nodetypes="cscscssc" />
    <path
       style="fill:#ffffff;stroke-width:4;stroke-linecap:square;paint-order:markers fill stroke"
       d="m -254.284,-27.51891 c 0,0 4.35993,0.01277 17.37878,-5.400141 13.01885,-5.412916 31.77145,-13.148532 39.06617,-18.880298 7.29472,-5.731766 0.0246,-0.01675 0.0246,-0.01675 0,0 6.67679,-4.58927 10.83917,-9.302361 4.16237,-4.713092 -4e-5,-0.0025 -4e-5,-0.0025 0,0 -6.30021,12.138265 -21.98103,18.602082 -15.68082,6.463818 0,0 0,0 0,0 -2.32817,-0.653056 -8.05269,1.962238 -5.72453,2.615294 -12.2179,5.43228 -12.42738,7.087778 -0.20948,1.655497 0,0 0,0 0,0 -21.05224,8.676621 -24.84762,5.949972 z"
       id="path26" />
    <path
       id="path25"
       style="fill:#ffffff;fill-opacity:1;stroke-width:0.201581"
       d="m -160.88088,-14.935024 c -0.74341,0 -1.3333,0.512342 -1.3333,1.387398 0,0.826016 0.5615,1.344856 1.28942,1.344856 0.65049,0 1.33841,-0.420698 1.33841,-1.387398 0,-0.798907 -0.52143,-1.344856 -1.29453,-1.344856 z m -0.0104,0.357484 c 0.57691,0 0.8054,0.561435 0.8054,1.004123 0,0.588539 -0.34975,1.01442 -0.81696,1.01442 -0.47883,0 -0.81705,-0.432366 -0.81705,-1.004123 0,-0.496895 0.25169,-1.01442 0.82861,-1.01442 z" />
    <path
       id="path24"
       style="fill:#ffffff;fill-opacity:1;stroke-width:0.201581"
       d="m -166.84247,-16.095322 v 1.560406 h -0.009 c -0.1239,-0.210375 -0.40135,-0.400108 -0.81177,-0.400108 -0.65565,0 -1.2107,0.535617 -1.20552,1.404228 0,0.793748 0.5008,1.328026 1.15,1.328026 0.43753,0 0.76536,-0.221927 0.91636,-0.512318 h 0.0104 l 0.0232,0.451691 h 0.43754 c -0.0155,-0.176821 -0.0207,-0.441449 -0.0207,-0.673769 v -3.158156 z m -0.72661,1.533273 c 0.36655,0 0.63244,0.249076 0.70601,0.55109 0.0155,0.05937 0.0207,0.140655 0.0207,0.200054 v 0.453033 c 0,0.07485 -0.005,0.140729 -0.0207,0.205245 -0.0904,0.356222 -0.38982,0.566582 -0.71765,0.566582 -0.52787,0 -0.79368,-0.437521 -0.79368,-0.96669 0,-0.576919 0.29939,-1.009314 0.80532,-1.009314 z" />
    <path
       style="fill:#ffffff;fill-opacity:1;stroke-width:0.201581"
       d="m -198.05526,-41.749362 c 5.9344,-3.439722 11.37034,-9.123317 11.08127,-19.370321 v -0.0013 0 0 c -8.11044,3.167252 -15.8608,6.062185 -23.69634,9.838627 -11.67005,5.627237 -23.34141,11.253178 -35.01147,16.877836 0,0 -0.0568,0.02708 -0.15875,0.07744 -0.35492,0.170362 -0.70857,0.340733 -1.0622,0.511096 -0.9667,0.477544 -1.93211,0.956375 -2.86783,1.432624 0.004,0.0026 0.008,0.0065 0.0116,0.009 -1.50748,0.773096 -3.10143,1.617186 -4.1417,2.249605 v 0.0039 c -0.45689,0.277494 -0.88797,0.554982 -1.28549,0.828602 0.13294,0.278776 0.26588,0.55627 0.40011,0.836342 0.48915,-0.144558 0.98734,-0.300722 1.49199,-0.467219 0,-0.0013 -0.003,-0.0039 -0.003,-0.0065 1.01962,-0.353644 4.75605,-1.679136 8.42537,-3.293742 2.59808,-1.120282 5.23487,-2.301231 7.82392,-3.406024 4.77411,-2.146353 9.54823,-4.292708 14.32106,-6.439055 2.80329,-1.337113 5.60658,-2.676811 8.40987,-4.013925 10.03352,-4.589549 19.43333,-9.470791 27.34243,-15.038655 0,0.0013 -0.001,0.0013 -0.001,0.0013 l 6e-5,0.0013 0.001,-0.0013 c 0.0114,-8.2e-4 0,-0.0013 0,-0.0013 v 0 c -0.56361,6.75942 -3.6121,12.423786 -8.76651,16.741759 -1.92257,1.478231 -3.5775,2.45396 -9.19418,5.026364 -0.0452,-0.303171 -0.25692,-0.798818 -0.73068,-1.169271 -2.38031,-1.661818 -4.84386,-1.301477 -5.95109,-1.091882 -2.28445,0.433659 -8.85257,3.628018 -8.85257,3.628018 l -0.2762,1.719147 c 0,0 8.13368,-3.555743 9.77281,-3.922288 0.83079,-0.18704 1.91772,-0.303551 3.01826,-0.0564 1.04957,0.235705 2.11153,0.802169 2.97551,1.953657 l 4e-5,-6.62e-4 z"
       id="path23"
       sodipodi:nodetypes="ccccscccccccccccccccccccccccccccccsccc" />
    <path
       style="fill:#ffffff;fill-opacity:1;stroke-width:0.201581"
       d="m -163.88554,-15.608772 c 0.005,0.161332 -0.11745,0.290398 -0.31234,0.290398 -0.17036,0 -0.29427,-0.129066 -0.29427,-0.290398 0,-0.167778 0.12907,-0.296847 0.30589,-0.296847 0.18327,0 0.30072,0.129069 0.30072,0.296847 z"
       id="path21" />
    <path
       style="fill:#ffffff;fill-opacity:1;stroke-width:0.201581"
       d="m -164.43149,-14.874392 h 0.48916 v 2.612279 h -0.48916 z"
       id="path20" />
    <path
       style="fill:#ffffff;fill-opacity:1;stroke-width:0.201581"
       d="m -170.59692,-12.974552 c 0,0.269748 0.006,0.507225 0.022,0.711148 h -0.43366 l -0.0271,-0.425911 h -0.0116 c -0.12778,0.210376 -0.41043,0.486572 -0.88796,0.486572 -0.42334,0 -0.92798,-0.227158 -0.92798,-1.144805 v -1.528133 h 0.48915 v 1.446821 c 0,0.49561 0.15488,0.831181 0.59886,0.831181 0.32783,0 0.55627,-0.220708 0.64532,-0.431083 0.0271,-0.0697 0.0426,-0.156165 0.0426,-0.242636 v -1.604283 h 0.49045 z"
       id="path18" />
    <path
       style="fill:#ffffff;fill-opacity:1;stroke-width:0.201581"
       d="m -175.20842,-15.62555 v 0.749869 h 0.69954 v 0.362673 h -0.69954 v 1.408099 c 0,0.323956 0.0942,0.50723 0.36784,0.50723 0.12648,0 0.22199,-0.01548 0.28136,-0.03226 l 0.0233,0.356219 c -0.0942,0.03874 -0.24393,0.06582 -0.43366,0.06582 -0.22715,0 -0.41043,-0.07098 -0.52658,-0.200049 -0.1394,-0.140681 -0.18844,-0.372996 -0.18844,-0.680175 V -14.513 h -0.41817 v -0.362672 h 0.41817 v -0.625968 z"
       id="path17" />
    <path
       style="fill:#ffffff;fill-opacity:1;stroke-width:0.201581"
       d="m -158.62872,-12.748687 c 0.14455,0.09293 0.4001,0.189722 0.64533,0.189722 0.35492,0 0.52141,-0.172945 0.52141,-0.389771 0,-0.225864 -0.13938,-0.349771 -0.50077,-0.478835 -0.4827,-0.167786 -0.70985,-0.427207 -0.70985,-0.740831 0,-0.420756 0.34847,-0.765355 0.92668,-0.765355 0.27362,0 0.5111,0.07485 0.66081,0.161325 l -0.12261,0.344609 c -0.10583,-0.06452 -0.29943,-0.151011 -0.54981,-0.151011 -0.28781,0 -0.45044,0.162623 -0.45044,0.35751 0,0.215543 0.16263,0.312346 0.51239,0.442696 0.46721,0.171659 0.70469,0.398809 0.70469,0.787294 0,0.458182 -0.36654,0.783426 -1.00541,0.783426 -0.29298,0 -0.5666,-0.07098 -0.75503,-0.179398 z"
       id="path16" />
    <path
       style="fill:#ffffff;fill-opacity:1;stroke-width:0.201581"
       d="m -229.01305,-29.894976 -8.97647,3.027855 c 3.07924,-0.434192 6.05748,-1.305768 9.0163,-2.22975 0.14932,-0.04468 0.29725,-0.09312 0.44417,-0.14505 -0.006,-0.0075 -0.32278,-0.396345 -0.484,-0.65307 z"
       id="path15" />
    <path
       style="fill:#ffffff;fill-opacity:1;stroke-width:0.201581"
       d="m -192.85548,-18.077779 v -4.797354 c -0.004,-0.736959 -0.1239,-1.371963 -0.3588,-1.904999 -0.2349,-0.529168 -0.5524,-0.962826 -0.95379,-1.299685 -0.39881,-0.33686 -0.85312,-0.585957 -1.36164,-0.745996 -0.50722,-0.160038 -1.0351,-0.236187 -1.58491,-0.236187 -0.60661,0 -1.19257,0.0968 -1.75787,0.276198 -0.56531,0.184563 -1.07769,0.449146 -1.53459,0.795042 -0.45817,0.339438 -0.83117,0.753736 -1.11512,1.239027 l 0.79246,0.576919 c 0.28524,-0.449146 0.61952,-0.822143 0.99897,-1.117703 0.37945,-0.29427 0.78471,-0.514969 1.21321,-0.663394 0.42978,-0.143268 0.85441,-0.215543 1.28033,-0.215543 0.4401,0 0.86602,0.07228 1.26612,0.212959 0.40526,0.135521 0.76407,0.340732 1.07641,0.609185 0.31491,0.268456 0.56272,0.597577 0.74857,0.982187 0.18069,0.389774 0.27233,0.829891 0.27749,1.322915 v 1.661071 c -0.50077,-0.216834 -1.0209,-0.380743 -1.55781,-0.489159 -0.5395,-0.107122 -1.0777,-0.160038 -1.61461,-0.160038 -0.68017,0 -1.33195,0.08389 -1.95146,0.251674 -0.61952,0.165201 -1.17191,0.420748 -1.65978,0.762773 -0.48528,0.342024 -0.87377,0.770517 -1.15384,1.291947 -0.25942,0.471082 -0.4001,1.02348 -0.4285,1.648161 h 1.06092 c 0.0168,-0.454311 0.12648,-0.862156 0.33298,-1.227413 0.21813,-0.389773 0.52014,-0.717605 0.90733,-0.991219 0.38462,-0.276199 0.82989,-0.485283 1.33712,-0.629841 0.50851,-0.144552 1.05317,-0.216826 1.63009,-0.216826 0.40139,0 0.78858,0.03226 1.1732,0.100674 0.37945,0.06451 0.73825,0.156165 1.06478,0.272325 0.33041,0.121322 0.61565,0.261999 0.85958,0.422042 v 2.270258 z"
       id="path14" />
    <path
       style="fill:#ffffff;fill-opacity:1;stroke-width:0.201581"
       d="m -204.8895,-18.077779 v -3.931328 c 0,-0.709856 -0.0749,-1.368087 -0.22329,-1.977271 -0.14842,-0.609191 -0.37945,-1.1461 -0.6892,-1.602994 -0.30976,-0.462048 -0.70599,-0.823432 -1.18869,-1.078981 -0.47754,-0.258132 -1.05188,-0.389774 -1.7127,-0.393647 -0.54078,0 -1.04929,0.09293 -1.53071,0.283939 -0.48399,0.193598 -0.91765,0.481418 -1.30484,0.875065 -0.38332,0.388484 -0.70212,0.886677 -0.95379,1.488121 -0.17295,-0.52659 -0.41172,-0.98735 -0.72148,-1.384872 -0.30975,-0.392357 -0.69437,-0.70082 -1.14738,-0.925393 -0.45561,-0.2207 -0.98735,-0.332987 -1.59783,-0.33686 -0.46205,0 -0.90733,0.0684 -1.33324,0.211663 -0.42463,0.140684 -0.81311,0.353643 -1.17192,0.642745 -0.3588,0.287819 -0.67242,0.654358 -0.93572,1.094475 v -1.636547 h -1.01574 v 8.671885 h 1.01574 v -4.00231 c 0.003,-0.715022 0.10584,-1.333243 0.30073,-1.849502 0.19747,-0.517554 0.45818,-0.939591 0.78342,-1.271289 0.32653,-0.32912 0.68405,-0.576927 1.0764,-0.734381 0.39365,-0.161333 0.78472,-0.236193 1.18224,-0.236193 0.61435,0.0026 1.13448,0.160044 1.56297,0.469796 0.43366,0.312343 0.76407,0.757615 0.99123,1.339697 0.22715,0.576922 0.34202,1.273875 0.34202,2.088274 v 4.195908 h 1.01574 v -4.148154 c 0,-0.529168 0.0774,-1.026072 0.2349,-1.499734 0.1523,-0.472381 0.37557,-0.890552 0.66468,-1.258387 0.29298,-0.365256 0.64533,-0.654358 1.05188,-0.866028 0.41301,-0.209086 0.87636,-0.318788 1.39133,-0.321372 0.61434,0.0026 1.13577,0.160044 1.56556,0.469796 0.43237,0.312343 0.76277,0.757615 0.98992,1.339697 0.22715,0.576922 0.34203,1.273875 0.34203,2.088274 v 4.195908 z"
       id="path13" />
    <path
       style="fill:#ffffff;fill-opacity:1;stroke-width:0.201581"
       d="m -180.39812,-18.077779 v -3.931328 c 0,-0.709856 -0.0787,-1.368087 -0.24006,-1.977271 -0.15617,-0.609191 -0.40397,-1.1461 -0.73438,-1.602994 -0.33557,-0.462048 -0.75632,-0.823432 -1.27129,-1.078981 -0.51626,-0.258132 -1.13061,-0.389774 -1.84176,-0.393647 -0.50593,0 -0.99768,0.07615 -1.46876,0.224573 -0.47367,0.152298 -0.90733,0.382034 -1.30485,0.685334 -0.39236,0.308469 -0.72147,0.694369 -0.98993,1.159004 v -1.756575 h -1.01574 v 8.671885 h 1.01574 v -4.00231 c 0.005,-0.715022 0.11616,-1.333243 0.33041,-1.849502 0.21941,-0.517554 0.50335,-0.939591 0.86344,-1.271289 0.35493,-0.32912 0.74987,-0.576927 1.17966,-0.734381 0.42979,-0.161333 0.85828,-0.236193 1.29194,-0.236193 0.67243,0.0026 1.24289,0.160044 1.71269,0.469796 0.47109,0.312343 0.83376,0.757615 1.08157,1.339697 0.24651,0.576922 0.37558,1.273875 0.37558,2.088274 v 4.195908 z"
       id="path12" />
    <path
       style="fill:#ffffff;fill-opacity:1;stroke-width:0.201581"
       d="m -204.97856,-38.291949 c 0,-0.0013 0,-0.0013 0,0 z"
       id="path11" />
    <path
       id="path10"
       style="fill:#ffffff;fill-opacity:1;stroke-width:0.201581"
       d="m -200.04774,-63.672826 c -1.21416,-0.0055 -2.38047,0.05862 -3.50333,0.186069 -5.56011,0.63113 -13.47955,4.283682 -18.63182,6.680413 -9.09537,4.233659 -18.6247,10.049402 -27.36326,16.652378 -1.618,-0.0468 -3.23604,-0.09348 -4.85137,-0.141102 -2.90783,1.33195 -5.42594,2.484517 -8.33377,3.815178 2.65745,1.388738 4.77796,2.608439 7.43541,3.995887 0.14069,-0.962827 0.98092,-2.083144 2.47291,-3.279579 l 5.39493,-4.328836 c 7.95169,-5.326509 16.29706,-10.270979 25.29288,-14.581748 5.61691,-2.693586 14.04747,-6.748782 20.23485,-7.5606 4.55986,-0.598859 9.3275,-0.189732 14.18809,0.663386 -4.6202,-1.441349 -8.69305,-2.084875 -12.33552,-2.101446 z" />
    <path
       style="fill:#ffffff;fill-opacity:1;stroke-width:0.201581"
       d="m -176.25513,-18.077779 c -0.0503,-0.138102 -0.0981,-0.282657 -0.13939,-0.428498 -0.18973,-0.667266 -0.28911,-1.401649 -0.28911,-2.203141 0,-0.809238 0.0994,-1.547487 0.28911,-2.213466 0.18972,-0.665979 0.46463,-1.244189 0.81956,-1.728184 0.36009,-0.48141 0.786,-0.859571 1.2842,-1.12028 0.49561,-0.263296 1.05188,-0.397522 1.66752,-0.400106 0.69308,0.0026 1.31259,0.176821 1.86241,0.509808 0.54465,0.33557 1.02219,0.80924 1.43132,1.41455 l 0.84151,-0.576919 c -0.46205,-0.713724 -1.03897,-1.263543 -1.73335,-1.652028 -0.69823,-0.385908 -1.49844,-0.582084 -2.40189,-0.585957 -0.78859,0.0039 -1.49716,0.156166 -2.12958,0.460761 -0.62726,0.304596 -1.16804,0.738254 -1.61331,1.300975 -0.44656,0.560144 -0.78859,1.224827 -1.02348,2.004382 -0.2349,0.778258 -0.35493,1.640412 -0.3601,2.586464 0.005,0.946042 0.1252,1.808197 0.3601,2.583879 l 0.0155,0.04774 z"
       id="path8" />
    <path
       style="fill:#ffffff;fill-opacity:1;stroke-width:0.201581"
       d="m -156.89796,-18.077779 v -3.931328 c 0,-0.709856 -0.0787,-1.368087 -0.24006,-1.977271 -0.15617,-0.609191 -0.40398,-1.1461 -0.73438,-1.602994 -0.33428,-0.462048 -0.75503,-0.823432 -1.27129,-1.078981 -0.51626,-0.258132 -1.13061,-0.389774 -1.84047,-0.393647 -0.50723,0 -0.99767,0.07615 -1.47005,0.224573 -0.47367,0.152298 -0.90604,0.382034 -1.30356,0.685334 -0.39236,0.308469 -0.72147,0.694369 -0.98993,1.159004 v -6.617166 h -1.01574 v 13.532476 h 1.01574 v -4.00231 c 0.004,-0.715022 0.11487,-1.333243 0.32912,-1.849502 0.21167,-0.517554 0.49561,-0.939591 0.85053,-1.271289 0.35236,-0.332993 0.74342,-0.576927 1.17192,-0.734381 0.42592,-0.161333 0.8557,-0.236193 1.28807,-0.236193 0.67243,0.0026 1.24677,0.160044 1.72173,0.469796 0.47367,0.312343 0.83763,0.757615 1.0893,1.339697 0.25556,0.576922 0.38333,1.273875 0.38333,2.088274 v 4.195908 z"
       id="path7" />
    <path
       style="fill:#ffffff;fill-opacity:1;stroke-width:0.201581"
       d="m -241.32198,-27.675057 c 0.001,-0.0013 0,-0.0013 0,0 z"
       id="path6" />
    <path
       style="fill:#ffffff;fill-opacity:1;stroke-width:0.201581"
       d="m -241.32198,-27.675057 -4.98062,0.992506 c -2.02787,0.373395 -3.42501,0.339791 -4.44023,0.20896 -0.74777,-0.09637 -1.10788,-0.19249 -1.40384,-0.396105 -0.2065,2.79297 -0.41042,5.585934 -0.61434,8.378907 2.36059,-1.006713 4.72378,-2.010833 7.08696,-3.016255 0.93572,-0.505933 1.63525,-1.138355 2.1386,-1.875312 0.5395,-0.850541 1.17579,-1.81982 1.79014,-2.760702 l 12.23278,-4.872204 c -0.10454,-0.445274 -0.1523,-0.842794 -0.1523,-1.199015 l -9.93413,4.006178 c -1.1048,0.436242 -1.72173,0.530457 -1.72302,0.533042 z"
       id="path5" />
    <path
       style="fill:#ffffff;fill-opacity:1;stroke-width:0.201581"
       d="m -205.6355,-37.011623 c -0.38213,-0.379133 -0.78142,-0.712162 -1.29452,-0.944755 -0.81794,-0.373631 -1.5969,-0.10198 -2.72973,0.427201 -2.8162,1.312596 -7.07921,3.071747 -9.70052,4.184287 -2.62132,1.11254 -5.27618,2.165715 -8.22532,3.244695 -0.44364,0.209109 -0.64924,0.430991 -0.56143,0.784718 0.11874,0.139387 0.24651,0.280071 0.38203,0.427207 1.00026,0.747283 2.63034,0.718893 5.53689,-0.07228 2.87899,-0.829071 5.95598,-1.951665 8.59917,-2.994736 3.94047,-1.555015 5.39078,-2.254117 6.29494,-2.79509 1.27551,-0.762432 1.66197,-2.041154 1.69849,-2.261219 z"
       id="path4" />
    <path
       style="fill:#ffffff;fill-opacity:1;stroke-width:0.201581"
       d="m -179.17458,-12.748687 c 0.14455,0.09293 0.4001,0.189722 0.64532,0.189722 0.35493,0 0.52013,-0.172945 0.52013,-0.389771 0,-0.225864 -0.1381,-0.349771 -0.49948,-0.478835 -0.4827,-0.167786 -0.70986,-0.427207 -0.70986,-0.740831 0,-0.420756 0.34977,-0.765355 0.92669,-0.765355 0.27233,0 0.5111,0.07485 0.66081,0.161325 l -0.12261,0.344609 c -0.10584,-0.06452 -0.29943,-0.151011 -0.54982,-0.151011 -0.28781,0 -0.44914,0.162623 -0.44914,0.35751 0,0.215543 0.16133,0.312346 0.5111,0.442696 0.46721,0.171659 0.70598,0.398809 0.70598,0.787294 0,0.458182 -0.36783,0.783426 -1.00541,0.783426 -0.29428,0 -0.5666,-0.07098 -0.75632,-0.179398 z"
       id="path3" />
    <path
       style="fill:#ffffff;fill-opacity:1;stroke-width:0.201581"
       d="m -186.97528,-61.120972 c -0.24522,-0.153586 -0.49173,-0.302017 -0.73696,-0.450441 h 0.001 l -0.003,-0.0013 c -4.48115,-2.700029 -8.9055,-4.62955 -14.90702,-3.900332 -14.34558,1.738501 -35.28122,15.807885 -46.71509,24.077084 4.04747,-3.043357 7.83941,-5.934417 11.84043,-8.562181 14.87087,-9.770218 28.99316,-16.246706 36.44409,-16.444171 6.30483,-0.166496 10.46459,2.275417 14.07583,5.281341 z"
       id="path2" />
    <path
       style="fill:#ffffff;fill-opacity:1;stroke-width:0.201581"
       d="m -195.10766,-59.583809 c -7.35542,1.684298 -13.84223,4.217848 -19.77664,7.183761 -12.327,5.251655 -23.96092,11.88947 -35.83491,18.46275 -2.65357,1.384871 -4.13266,2.507737 -4.88382,3.895187 -0.23877,-2.070205 1.50877,-4.095236 5.74339,-6.54489 10.41426,-7.26765 22.07013,-13.087195 34.14803,-18.41371 6.45971,-2.848463 11.57972,-5.205192 18.77122,-6.087997 3.23695,-0.396231 9.96511,-0.03227 9.96511,-0.03227 0,0 -5.49687,0.934437 -8.13238,1.537169 z"
       id="path1"
       sodipodi:nodetypes="ccccccccc" />
  </g>
</svg>
